<svg xmlns="http://www.w3.org/2000/svg" xmlns:xlink="http://www.w3.org/1999/xlink" xmlns:serif="http://www.serif.com/" width="175px" height="30px" viewBox="0 0 2910 500" xml:space="preserve" style="fill-rule:evenodd;clip-rule:evenodd;stroke-linejoin:round;stroke-miterlimit:2;"><g id="FriendlyCaptcha-Logo"><g><path d="M426.777,73.223c-46.884,-46.884 -110.473,-73.223 -176.777,-73.223c-137.979,0 -250,112.021 -250,250c0,137.979 112.021,250 250,250c66.304,0 129.893,-26.339 176.777,-73.223l-53.033,-53.033c-32.819,32.819 -77.331,51.256 -123.744,51.256c-96.585,0 -175,-78.415 -175,-175c0,-96.585 78.415,-175 175,-175c46.413,0 90.925,18.437 123.744,51.256l53.033,-53.033Z" style="fill:#ffab00;"></path><path d="M73.223,426.777c46.884,46.884 110.473,73.223 176.777,73.223c66.304,0 129.893,-26.339 176.777,-73.223l-53.033,-53.033c-32.819,32.819 -77.331,51.256 -123.744,51.256c-46.413,0 -90.925,-18.437 -123.744,-51.256l-53.033,53.033Z" style="fill:#ffc400;"></path><circle cx="175" cy="250" r="37.5" style="fill:#ffab00;"></circle><circle cx="325" cy="250" r="37.5" style="fill:#ffab00;"></circle></g><path id="FriendlyCaptcha-Wordmark" d="M576.8,354.868l37.943,0l0,-88.978l87.034,0l0,-31.806l-87.034,0l0,-56.864l96.239,0l0,-31.807l-134.182,0l0,209.455Z" style="fill:#212121;fill-rule:nonzero;"></path><path d="M741.561,354.868l37.023,0l0,-92.353c0,-19.943 15.034,-34.056 35.386,-34.056c6.239,0 14.012,1.125 17.182,2.147l0,-34.057c-3.375,-0.613 -9.204,-1.022 -13.295,-1.022c-18,0 -33.034,10.227 -38.762,28.432l-1.636,0l0,-26.182l-35.898,0l0,157.091Z" style="fill:#212121;fill-rule:nonzero;"></path><path d="M855.8,354.868l37.023,0l0,-157.091l-37.023,0l0,157.091Zm18.614,-179.387c11.761,0 21.375,-9 21.375,-20.045c0,-11.148 -9.614,-20.148 -21.375,-20.148c-11.864,0 -21.478,9 -21.478,20.148c0,11.045 9.614,20.045 21.478,20.045Z" style="fill:#212121;fill-rule:nonzero;"></path><path d="M1000.41,357.936c36.613,0 61.772,-17.898 68.318,-45.205l-34.568,-3.886c-5.012,13.295 -17.284,20.25 -33.239,20.25c-23.932,0 -39.784,-15.75 -40.091,-42.648l109.432,0l0,-11.352c0,-55.125 -33.136,-79.364 -71.796,-79.364c-45,0 -74.352,33.034 -74.352,81.512c0,49.295 28.943,80.693 76.296,80.693Zm-39.478,-96.443c1.125,-20.046 15.955,-36.921 38.046,-36.921c21.273,0 35.591,15.546 35.795,36.921l-73.841,0Z" style="fill:#212121;fill-rule:nonzero;"></path><path d="M1138.58,262.822c0,-22.704 13.705,-35.795 33.239,-35.795c19.125,0 30.579,12.579 30.579,33.545l0,94.296l37.023,0l0,-100.023c0.102,-37.636 -21.375,-59.114 -53.795,-59.114c-23.523,0 -39.682,11.25 -46.841,28.739l-1.841,0l0,-26.693l-35.387,0l0,157.091l37.023,0l0,-92.046Z" style="fill:#212121;fill-rule:nonzero;"></path><path d="M1335.46,357.629c27,0 39.171,-16.057 45,-27.511l2.25,0l0,24.75l36.409,0l0,-209.455l-37.125,0l0,78.341l-1.534,0c-5.625,-11.352 -17.182,-28.023 -44.898,-28.023c-36.306,0 -64.841,28.432 -64.841,80.796c0,51.75 27.716,81.102 64.739,81.102Zm10.33,-30.375c-24.444,0 -37.33,-21.477 -37.33,-50.932c0,-29.25 12.682,-50.216 37.33,-50.216c23.829,0 36.92,19.739 36.92,50.216c0,30.477 -13.295,50.932 -36.92,50.932Z" style="fill:#212121;fill-rule:nonzero;"></path><rect x="1458.7" y="145.413" width="37.023" height="209.455" style="fill:#212121;fill-rule:nonzero;"></rect><path d="M1556.78,413.777c28.841,0 45.512,-14.83 54.409,-39.887l62.898,-176.113l-39.375,0l-36.307,118.636l-1.636,0l-36.205,-118.636l-39.272,0l56.966,160.363l-3.171,8.489c-6.852,17.898 -17.693,19.125 -33.852,14.42l-8.591,28.841c5.011,2.046 14.011,3.887 24.136,3.887Z" style="fill:#212121;fill-rule:nonzero;"></path><path d="M1952.06,216.084c-6.443,-46.535 -42.238,-73.535 -88.67,-73.535c-54.716,0 -95.932,39.887 -95.932,107.591c0,67.603 40.705,107.591 95.932,107.591c49.807,0 82.841,-32.216 88.67,-72.204l-38.25,-0.205c-4.806,24.546 -24.852,38.352 -49.909,38.352c-33.954,0 -58.295,-25.465 -58.295,-73.534c0,-47.25 24.136,-73.534 58.398,-73.534c25.465,0 45.409,14.421 49.806,39.478l38.25,0Z" style="fill:#212121;fill-rule:nonzero;"></path><path d="M2030.51,358.038c24.647,0 39.375,-11.557 46.125,-24.75l1.227,0l0,21.58l35.591,0l0,-105.137c0,-41.522 -33.853,-54 -63.818,-54c-33.035,0 -58.398,14.728 -66.58,43.364l34.568,4.909c3.682,-10.739 14.114,-19.943 32.216,-19.943c17.182,0 26.591,8.795 26.591,24.238l0,0.614c0,10.636 -11.148,11.148 -38.864,14.114c-30.477,3.272 -59.625,12.375 -59.625,47.761c0,30.886 22.603,47.25 52.569,47.25Zm9.613,-27.204c-15.443,0 -26.488,-7.057 -26.488,-20.66c0,-14.215 12.375,-20.147 28.943,-22.5c9.716,-1.329 29.147,-3.784 33.954,-7.67l0,18.511c0,17.489 -14.113,32.319 -36.409,32.319Z" style="fill:#212121;fill-rule:nonzero;"></path><path d="M2150.78,413.777l37.023,0l0,-83.659l1.534,0c5.83,11.454 18,27.511 45,27.511c37.023,0 64.739,-29.352 64.739,-81.102c0,-52.364 -28.534,-80.796 -64.841,-80.796c-27.716,0 -39.273,16.671 -44.898,28.023l-2.148,0l0,-25.977l-36.409,0l0,216Zm36.307,-137.455c0,-30.477 13.091,-50.216 36.921,-50.216c24.647,0 37.329,20.966 37.329,50.216c0,29.455 -12.886,50.932 -37.329,50.932c-23.625,0 -36.921,-20.455 -36.921,-50.932Z" style="fill:#212121;fill-rule:nonzero;"></path><path d="M2409.12,197.777l-30.988,0l0,-37.637l-37.023,0l0,37.637l-22.296,0l0,28.636l22.296,0l0,87.341c-0.205,29.557 21.273,44.08 49.091,43.261c10.534,-0.306 17.795,-2.352 21.784,-3.681l-6.239,-28.944c-2.045,0.512 -6.238,1.432 -10.841,1.432c-9.307,0 -16.772,-3.273 -16.772,-18.204l0,-81.205l30.988,0l0,-28.636Z" style="fill:#212121;fill-rule:nonzero;"></path><path d="M2506.99,357.936c39.477,0 64.637,-23.421 67.296,-56.762l-35.387,0c-3.17,16.875 -15.341,26.591 -31.602,26.591c-23.114,0 -38.045,-19.329 -38.045,-51.443c0,-31.704 15.238,-50.727 38.045,-50.727c17.795,0 28.739,11.454 31.602,26.591l35.387,0c-2.557,-34.057 -29.148,-56.455 -67.5,-56.455c-46.023,0 -75.069,33.239 -75.069,81.205c0,47.557 28.33,81 75.273,81Z" style="fill:#212121;fill-rule:nonzero;"></path><path d="M2641.79,262.822c0,-22.704 14.113,-35.795 33.954,-35.795c19.432,0 30.887,12.375 30.887,33.545l0,94.296l37.022,0l0,-100.023c0,-37.943 -21.477,-59.114 -54.102,-59.114c-24.136,0 -39.477,10.943 -46.739,28.739l-1.841,0l0,-79.057l-36.204,0l0,209.455l37.023,0l0,-92.046Z" style="fill:#212121;fill-rule:nonzero;"></path><path d="M2826.49,358.038c24.648,0 39.375,-11.557 46.125,-24.75l1.227,0l0,21.58l35.591,0l0,-105.137c0,-41.522 -33.852,-54 -63.818,-54c-33.034,0 -58.398,14.728 -66.579,43.364l34.568,4.909c3.682,-10.739 14.113,-19.943 32.216,-19.943c17.182,0 26.591,8.795 26.591,24.238l0,0.614c0,10.636 -11.148,11.148 -38.864,14.114c-30.477,3.272 -59.625,12.375 -59.625,47.761c0,30.886 22.602,47.25 52.568,47.25Zm9.614,-27.204c-15.443,0 -26.489,-7.057 -26.489,-20.66c0,-14.215 12.375,-20.147 28.943,-22.5c9.716,-1.329 29.148,-3.784 33.955,-7.67l0,18.511c0,17.489 -14.114,32.319 -36.409,32.319Z" style="fill:#212121;fill-rule:nonzero;"></path></g></svg>