<svg xmlns="http://www.w3.org/2000/svg" width="227px" height="23px" viewBox="0 0 227 23">
    <g fill="none">
        <path fill="#002D5D" d="M22.95,21.82 L28.55,21.82 L28.55,13.01 L31.95,13.01 L31.95,21.82 L37.53,21.82 L37.53,0.42 L31.95,0.42 L31.95,8.27 L28.55,8.27 L28.55,0.42 L22.95,0.42 L22.95,21.82 Z M39.2,21.82 L45.15,21.82 L45.72,18.07 L50.16,18.07 L50.73,21.82 L56.66,21.82 L51.45,0.42 L44.45,0.42 L39.22,21.82 L39.2,21.82 Z M49.5,13.92 L46.38,13.92 L47.95,4.79 L47.95,4.79 L49.5,13.92 Z M58.34,21.92 L63.56,21.92 L63.56,8.6 L63.62,8.6 L67.34,21.82 L73.45,21.82 L73.45,0.42 L68.23,0.42 L68.23,13.6 L68.17,13.6 L64.58,0.42 L58.34,0.42 L58.34,21.82 L58.34,21.92 Z M76.84,21.92 L82.05,21.92 L82.05,8.6 L82.11,8.6 L85.83,21.82 L91.95,21.82 L91.95,0.42 L86.73,0.42 L86.73,13.6 L86.67,13.6 L83.07,0.42 L76.84,0.42 L76.84,21.82 L76.84,21.92 Z M94.7,11.12 C94.7,19.12 96.7,22.24 102.35,22.24 C108,22.24 109.95,19.12 109.95,11.12 C109.95,3.12 108.04,0 102.35,0 C96.66,0 94.7,3.11 94.7,11.12 Z M100.46,11.12 C100.46,5.33 100.64,3.77 102.35,3.77 C104.06,3.77 104.24,5.33 104.24,11.12 C104.24,16.91 104.06,18.46 102.35,18.46 C100.64,18.46 100.46,16.9 100.46,11.12 Z M115.63,21.82 L122.82,21.82 L127.44,0.42 L121.5,0.42 L119.25,16.54 L119.19,16.54 L116.95,0.42 L111.02,0.42 L115.64,21.82 L115.63,21.82 Z M129.69,21.82 L142.63,21.82 L142.63,17.26 L135.26,17.26 L135.26,13.01 L141.95,13.01 L141.95,8.63 L135.3,8.63 L135.3,4.97 L142.4,4.97 L142.4,0.42 L129.69,0.42 L129.69,21.82 Z M145.57,21.82 L151.15,21.82 L151.15,13.25 L152.62,13.25 C153.97,13.25 154.44,13.87 154.44,16.25 L154.44,17.69 C154.347391,19.0865284 154.520448,20.4879516 154.95,21.82 L160.95,21.82 L160.95,21.52 C160.674884,21.3729533 160.454099,21.1416545 160.32,20.86 C160.057461,19.8830901 159.96611,18.8680885 160.05,17.86 L160.05,16.06 C160.05,13.22 159.24,11.51 156.54,11.27 L156.54,11.21 C159.09,10.82 160.2,8.96 160.2,6.11 C160.2,2.81 158.58,0.42 154.32,0.42 L145.6,0.42 L145.6,21.82 L145.57,21.82 Z M151.15,4.43 L152.23,4.43 C153.91,4.43 154.6,5.18 154.6,6.92 C154.6,8.45 153.85,9.47 152.26,9.47 L151.15,9.47 L151.15,4.47 L151.15,4.43 Z M176.48,6.59 C176.48,2 174.41,0 169.55,0 C164.85,0 162.55,2.36 162.55,6.68 C162.55,14.26 171.3,12.17 171.3,16.39 C171.365508,16.9095452 171.206542,17.4323904 170.862928,17.8275462 C170.519314,18.222702 170.023608,18.4527297 169.5,18.46 C168.42,18.46 167.67,17.8 167.67,15.97 L167.67,15.46 L162.28,15.46 L162.28,16.21 C162.28,20.65 164.86,22.21 169.47,22.21 C174.39,22.21 177.06,20.21 177.06,15.61 C177.06,7.79 167.94,9.86 167.94,5.61 C167.891429,5.12166318 168.053767,4.63583371 168.386154,4.27479248 C168.718541,3.91375124 169.189321,3.71188409 169.68,3.72 C170.76,3.72 171.27,4.77 171.27,6.03 L171.27,6.54 L176.48,6.59 Z M188.02,8.12 L193.41,8.12 L193.41,6.77 C193.41,2.63 191.52,0 186.49,0 C180.7,0 178.84,2.93 178.84,11.12 C178.84,19.12 180.22,22.24 186.49,22.24 C190.06,22.24 193.56,20.8 193.56,14.8 L193.56,13.22 L188.17,13.22 C188.17,17.22 187.87,18.46 186.49,18.46 C184.78,18.46 184.6,16.9 184.6,11.12 C184.6,5.34 184.78,3.77 186.49,3.77 C187.57,3.77 188.02,4.49 188.02,6.92 L188.02,8.12 Z M196.02,21.82 L201.6,21.82 L201.6,13.01 L205.01,13.01 L205.01,21.82 L210.59,21.82 L210.59,0.42 L205.01,0.42 L205.01,8.27 L201.6,8.27 L201.6,0.42 L196.02,0.42 L196.02,21.82 Z M213.83,21.82 L226.83,21.82 L226.83,17.26 L219.45,17.26 L219.45,13.01 L226.11,13.01 L226.11,8.63 L219.45,8.63 L219.45,4.97 L226.56,4.97 L226.56,0.42 L213.83,0.42 L213.83,21.82 Z"/>
        <polygon fill="#3DB7E4" points="17.39 .42 12.87 .42 8.18 21.82 12.69 21.82 17.39 .42"/>
        <polygon fill="#3DB7E4" points="9.21 .42 4.69 .42 0 21.82 4.51 21.82 9.21 .42"/>
    </g>
</svg>
